:SAMPLES-PER-SECOND 30
:FULLY-SPECIFIED
:DEGREES
97
root  69.1485 40.174 0.240876 -152.562 85.732 -157.268
RightUpLeg  -3.8536 -0.0035642 5.60269
RightLeg  34.8987 13.4461 2.74269
RightFoot  29.8751 -3.11926 7.88161
RightToes  3.49245e-010 -3.18055e-015 8.94531e-016
Spine  -8.80921 -0.695548 -1.35563
Spine1  8.26976 -1.25164 2.23122
HEad  -17.6854 -2.92642 7.54039
LeftShoulder1  0 -2.69403e-036 -1.28585e-037
LeftArm  20.5134 53.243 -78.5332
LeftForeArm  -39.2642 -28.1168 18.2825
LeftHand  0.830786 5.70778 -3.31609
RightShoulder  -2.48481e-017 0 -8.08114e-019
RightArm  42.8125 -51.9726 78.7598
RightForeArm  -43.6858 21.0484 -20.2368
RightHand  1.30383 -11.6939 -3.33733
LeftUpLeg  -5.2851 -8.27374 -1.0204
LeftLeg  34.539 -5.29283 3.84015
LeftFoot  25.4057 2.18959 -5.98691
LeftToes  2.65573e-010 7.17151e-011 4.62952e-011
98
root  71.5926 41.7911 0.246232 -144.559 86.5838 -149.365
RightUpLeg  -5.67901 4.73804 6.36233
RightLeg  36.4729 11.8393 1.56501
RightFoot  36.5806 -3.56713 7.66428
RightToes  3.49245e-010 -3.18055e-015 8.94531e-016
Spine  -10.8422 -0.568827 -1.26423
Spine1  10.1971 -1.18361 1.92313
HEad  -18.9141 -2.17117 7.01027
LeftShoulder1  0 -2.69403e-036 -1.28585e-037
LeftArm  18.4907 57.3349 -77.7819
LeftForeArm  -37.493 -29.8301 19.0461
LeftHand  0.832111 5.58947 -4.17379
RightShoulder  -2.48481e-017 0 -8.08114e-019
RightArm  41.4002 -53.8824 77.5406
RightForeArm  -43.3741 21.1839 -20.6486
RightHand  1.33747 -11.6441 -4.20001
LeftUpLeg  -7.27013 -9.92577 -1.32237
LeftLeg  36.5546 -5.56161 4.05238
LeftFoot  27.2711 1.7275 -4.42899
LeftToes  2.65573e-010 7.17151e-011 4.62952e-011
99
root  73.6525 43.0838 0.305722 -152.209 87.0487 -155.949
RightUpLeg  -8.84883 5.22484 6.03005
RightLeg  41.3222 10.8117 0.728918
RightFoot  34.2903 -2.09402 4.73913
RightToes  3.49245e-010 -3.18055e-015 8.94531e-016
Spine  -7.00683 -0.659326 -2.53166
Spine1  10.8422 -1.49019 2.01543
HEad  -24.009 -0.658441 5.75132
LeftShoulder1  0 -2.69403e-036 -1.28585e-037
LeftArm  19.2221 56.9653 -78.7566
LeftForeArm  -40.8159 -28.7874 18.4625
LeftHand  0.855523 5.77777 -4.48302
RightShoulder  -2.48481e-017 0 -8.08114e-019
RightArm  39.5529 -52.3881 77.9698
RightForeArm  -42.356 20.7378 -18.9476
RightHand  1.3619 -11.8434 -4.13922
LeftUpLeg  -10.6496 -10.3451 -1.84429
LeftLeg  41.3514 -5.00495 5.69302
LeftFoot  19.5944 0.882543 -2.77639
LeftToes  2.65573e-010 7.17151e-011 4.62952e-011
100
root  75.5392 44.0201 0.371736 -166.957 87.0309 -168.881
RightUpLeg  -11.6397 2.63435 5.22525
RightLeg  44.3206 9.98266 -0.162235
RightFoot  29.4007 -0.966619 2.45786
RightToes  3.49245e-010 -3.18055e-015 8.94531e-016
Spine  -0.797633 -0.701715 -4.11093
Spine1  10.2307 -1.9026 2.89516
HEad  -27.1524 1.21362 4.96081
LeftShoulder1  0 -2.69403e-036 -1.28585e-037
LeftArm  23.1208 54.9953 -80.3431
LeftForeArm  -47.4125 -26.2074 17.0791
LeftHand  0.921881 6.33718 -5.6951
RightShoulder  -2.48481e-017 0 -8.08114e-019
RightArm  38.8388 -50.2127 78.3234
RightForeArm  -40.9151 20.5262 -16.3297
RightHand  1.27671 -11.7457 -2.62206
LeftUpLeg  -13.4804 -9.65676 -2.09388
LeftLeg  43.6215 -3.89876 7.48556
LeftFoot  13.352 0.701606 -2.77988
LeftToes  2.65573e-010 7.17151e-011 4.62952e-011
101
root  77.4569 44.6934 0.419734 -173.285 86.9976 -174.346
RightUpLeg  -14.9201 0.191559 4.87494
RightLeg  44.1804 9.61907 -0.544341
RightFoot  23.4887 -0.70103 2.09475
RightToes  3.49245e-010 -3.18055e-015 8.94531e-016
Spine  4.28476 -0.636851 -4.6076
Spine1  8.32147 -1.90636 3.14412
HEad  -27.2867 3.09105 5.97634
LeftShoulder1  0 -2.69403e-036 -1.28585e-037
LeftArm  24.1318 53.677 -80.3746
LeftForeArm  -45.7646 -24.2721 13.1195
LeftHand  0.953429 6.50968 -7.71393
RightShoulder  -2.48481e-017 0 -8.08114e-019
RightArm  41.4725 -49.8904 78.6387
RightForeArm  -42.198 20.589 -15.7785
RightHand  1.19014 -11.4185 -1.57554
LeftUpLeg  -16.406 -8.59636 -1.90201
LeftLeg  42.0002 -3.73118 7.12988
LeftFoot  10.0586 0.692312 -3.1878
LeftToes  2.65573e-010 7.17151e-011 4.62952e-011
102
root  79.4776 45.0853 0.442596 -172.825 87.1847 -174.304
RightUpLeg  -18.7021 -0.865291 5.10872
RightLeg  41.0434 9.81537 -0.217662
RightFoot  16.9593 -0.645854 2.38194
RightToes  3.49245e-010 -3.18055e-015 8.94531e-016
Spine  7.60193 -0.754486 -3.6463
Spine1  6.24067 -1.47909 1.41754
HEad  -26.4878 4.35025 7.78891
LeftShoulder1  0 -2.69403e-036 -1.28585e-037
LeftArm  22.0944 53.0313 -79.136
LeftForeArm  -37.7025 -22.4614 8.54496
LeftHand  0.924457 6.02918 -8.04933
RightShoulder  -2.48481e-017 0 -8.08114e-019
RightArm  43.1778 -50.862 79.9908
RightForeArm  -43.532 20.6867 -16.3611
RightHand  1.18995 -11.3303 -1.80159
LeftUpLeg  -19.3934 -8.03527 -1.61075
LeftLeg  37.2147 -4.32375 5.23539
LeftFoot  5.07007 0.672715 -4.04287
LeftToes  2.65573e-010 7.17151e-011 4.62952e-011
103
root  81.5427 45.0719 0.439464 -171.226 87.3709 -173.419
RightUpLeg  -21.6331 -1.04265 5.38712
RightLeg  34.9479 10.5544 0.542782
RightFoot  12.685 -0.674214 2.92356
RightToes  3.49245e-010 -3.18055e-015 8.94531e-016
Spine  9.38581 -0.834978 -2.77919
Spine1  6.12117 -1.10465 0.191291
HEad  -26.161 4.98314 7.9758
LeftShoulder1  0 -2.69403e-036 -1.28585e-037
LeftArm  18.9155 52.3729 -79.0612
LeftForeArm  -32.4369 -20.9858 5.58735
LeftHand  0.862878 5.58048 -6.09911
RightShoulder  -2.48481e-017 0 -8.08114e-019
RightArm  42.8225 -51.2546 81.074
RightForeArm  -43.4785 20.697 -16.5871
RightHand  1.20372 -11.3634 -2.02885
LeftUpLeg  -21.8125 -8.60641 -1.27472
LeftLeg  30.3541 -4.42965 3.58764
LeftFoot  -0.729849 0.654507 -5.9106
LeftToes  2.65573e-010 7.17151e-011 4.62952e-011
104
root  83.6044 44.6378 0.41078 -167.958 87.4872 -170.809
RightUpLeg  -23.3821 -0.627971 5.52343
RightLeg  26.6168 11.3486 1.04064
RightFoot  12.4096 -0.867472 3.80862
RightToes  3.49245e-010 -3.18055e-015 8.94531e-016
Spine  10.6207 -0.400731 -3.22385
Spine1  6.74475 -0.974222 2.06065
HEad  -24.5607 4.23056 5.2634
LeftShoulder1  0 -2.69403e-036 -1.28585e-037
LeftArm  15.5058 52.2632 -81.3604
LeftForeArm  -32.4994 -20.4941 4.60391
LeftHand  0.795263 5.2965 -3.77784
RightShoulder  -2.48481e-017 0 -8.08114e-019
RightArm  42.293 -51.3561 80.1668
RightForeArm  -42.6405 20.6467 -16.3727
RightHand  1.18139 -11.2803 -1.73692
LeftUpLeg  -24.0931 -10.4497 -0.517711
LeftLeg  23.2082 -3.02232 2.88056
LeftFoot  -3.92334 0.525781 -6.47837
LeftToes  2.65573e-010 7.17151e-011 4.62952e-011
105
root  85.6677 43.8296 0.361009 -162.74 87.5059 -166.405
RightUpLeg  -24.6873 0.460798 5.42703
RightLeg  17.1774 10.7008 0.69659
RightFoot  15.6782 -1.1957 4.63343
RightToes  3.49245e-010 -3.18055e-015 8.94531e-016
Spine  11.7928 -0.0637178 -3.62991
Spine1  6.89082 -0.983503 4.14819
HEad  -20.4168 1.89434 0.730342
LeftShoulder1  0 -2.69403e-036 -1.28585e-037
LeftArm  12.8862 52.5059 -83.5579
LeftForeArm  -34.0973 -20.5189 4.51825
LeftHand  0.751409 5.1019 -2.63534
RightShoulder  -2.48481e-017 0 -8.08114e-019
RightArm  42.2377 -51.2168 78.9225
RightForeArm  -42.1632 20.6056 -15.8929
RightHand  1.17115 -11.2209 -1.65617
LeftUpLeg  -26.6539 -10.2189 -0.676648
LeftLeg  17.2407 -3.63571 2.95474
LeftFoot  -6.75754 0.330949 -6.04509
LeftToes  2.65573e-010 7.17151e-011 4.62952e-011
106
root  87.7507 42.458 0.293895 -163.056 87.1297 -167.068
RightUpLeg  -25.757 2.87476 4.00386
RightLeg  9.10033 6.88964 0.67722
RightFoot  21.1596 -1.26771 4.08518
RightToes  3.49245e-010 -3.18055e-015 8.94531e-016
Spine  14.3642 -0.256843 -3.30229
Spine1  5.89523 -1.05779 4.61501
HEad  -20.065 1.84258 -0.175832
LeftShoulder1  0 -2.69403e-036 -1.28585e-037
LeftArm  11.5783 52.7514 -84.5968
LeftForeArm  -34.9611 -20.5851 4.58209
LeftHand  0.766821 5.2157 -2.7606
RightShoulder  -2.48481e-017 0 -8.08114e-019
RightArm  41.3616 -51.1168 78.7494
RightForeArm  -41.2062 20.5411 -15.3234
RightHand  1.18741 -11.2704 -1.90364
LeftUpLeg  -29.1622 -7.86854 -2.35523
LeftLeg  13.7734 -6.9213 3.06343
LeftFoot  -11.2996 0.107973 -7.71211
LeftToes  2.65573e-010 7.17151e-011 4.62952e-011
107
root  89.8136 40.4149 0.206855 -168.025 86.257 -171.077
RightUpLeg  -27.4747 2.8056 3.01493
RightLeg  8.22359 6.5097 0.78893
RightFoot  23.8434 -0.533246 1.5711
RightToes  3.49245e-010 -3.18055e-015 8.94531e-016
Spine  18.3422 -1.06165 -1.57965
Spine1  4.95489 -1.23719 2.99256
HEad  -21.8231 3.1361 0.771357
LeftShoulder1  0 -2.69403e-036 -1.28585e-037
LeftArm  12.24 52.5185 -84.392
LeftForeArm  -35.7657 -20.895 5.13934
LeftHand  0.794543 5.32781 -3.56617
RightShoulder  -2.48481e-017 0 -8.08114e-019
RightArm  39.9747 -50.7087 80.1224
RightForeArm  -40.7601 20.5075 -15.0237
RightHand  1.18438 -11.2585 -1.86489
LeftUpLeg  -31.1042 -8.36364 -3.16652
LeftLeg  13.7801 -6.91026 2.95462
LeftFoot  -12.5748 0.02977 -9.30734
LeftToes  2.65573e-010 7.17151e-011 4.62952e-011
108
root  91.7634 38.0078 0.10991 -169.603 85.4934 -171.06
RightUpLeg  -32.1751 0.404337 3.61698
RightLeg  19.9282 11.3354 0.952179
RightFoot  17.475 0.695695 -2.5634
RightToes  3.49245e-010 -3.18055e-015 8.94531e-016
Spine  22.2733 -2.17641 1.52042
Spine1  4.90583 -1.36298 -0.151548
HEad  -23.692 2.94372 1.02347
LeftShoulder1  0 -2.69403e-036 -1.28585e-037
LeftArm  12.5401 50.9295 -82.5502
LeftForeArm  -34.1117 -20.5563 4.65803
LeftHand  0.761146 4.84335 -4.33432
RightShoulder  -2.48481e-017 0 -8.08114e-019
RightArm  39.6507 -48.967 82.3822
RightForeArm  -41.616 20.518 -13.891
RightHand  1.17479 -11.2673 -1.61753
LeftUpLeg  -34.4403 -13.7719 -0.865316
LeftLeg  19.8251 -0.0523746 3.86496
LeftFoot  -6.80571 0.315222 -5.81947
LeftToes  2.65573e-010 7.17151e-011 4.62952e-011
109
root  93.6554 35.4714 0.0369073 -170.87 85.3157 -171.221
RightUpLeg  -39.1759 0.451289 3.40308
RightLeg  39.8987 12.2798 2.06967
RightFoot  3.63378 1.12414 -7.62706
RightToes  3.49245e-010 -3.18055e-015 8.94531e-016
Spine  25.107 -2.78555 3.71685
Spine1  5.10443 -1.12327 -2.50283
HEad  -24.6604 0.423168 -0.140344
LeftShoulder1  0 -2.69403e-036 -1.28585e-037
LeftArm  5.40667 46.411 -80.8
LeftForeArm  -25.0903 -16.9339 0.0553472
LeftHand  0.703344 4.353 -3.98701
RightShoulder  -2.48481e-017 0 -8.08114e-019
RightArm  38.8654 -45.0003 84.0501
RightForeArm  -40.1479 20.1601 -9.88446
RightHand  1.23514 -11.704 -1.84429
LeftUpLeg  -40.6688 -13.8323 -1.45888
LeftLeg  33.7995 -0.749428 7.0149
LeftFoot  -0.0986835 -0.165253 1.41387
LeftToes  2.65573e-010 7.17151e-011 4.62952e-011
110
root  95.5322 33.1978 0.00695208 -172.25 85.6493 -172.136
RightUpLeg  -45.0881 0.958734 3.68287
RightLeg  58.0112 10.8686 0.749789
RightFoot  -9.62821 0.294 -9.4991
RightToes  3.49245e-010 -3.18055e-015 8.94531e-016
Spine  27.6957 -2.64297 4.05559
Spine1  4.77369 -0.799475 -2.80319
HEad  -25.8922 -1.43219 -1.17073
LeftShoulder1  0 -2.69403e-036 -1.28585e-037
LeftArm  -6.04999 39.8073 -80.854
LeftForeArm  -15.8221 -10.2392 -4.74143
LeftHand  0.723415 5.06899 -1.48497
RightShoulder  -2.48481e-017 0 -8.08114e-019
RightArm  37.4477 -39.6174 85.1087
RightForeArm  -36.8049 19.0497 -5.07391
RightHand  1.39176 -12.6399 -2.71059
LeftUpLeg  -47.2721 -13.3145 -2.17587
LeftLeg  50.1571 -3.96907 9.88045
LeftFoot  -1.47153 -0.473205 4.48517
LeftToes  2.65573e-010 7.17151e-011 4.62952e-011
